<?xml version="1.0" encoding="UTF-8"?>
<svg width="24px" height="24px" viewBox="0 0 24 24" version="1.1" xmlns="http://www.w3.org/2000/svg" xmlns:xlink="http://www.w3.org/1999/xlink">
    <!-- Generator: Sketch 61 (89581) - https://sketch.com -->
    <title>Shape</title>
    <desc>Created with Sketch.</desc>
    <g id="desktop" stroke="none" stroke-width="1" fill="none" fill-rule="evenodd">
        <g id="style-guide-copy" transform="translate(-399.000000, -353.000000)" fill="#FFFFFF" fill-rule="nonzero">
            <g id="icons" transform="translate(155.000000, 167.000000)">
                <path d="M256,188.163 C259.204,188.163 259.584,188.175 260.85,188.233 C264.102,188.381 265.621,189.924 265.769,193.152 C265.827,194.417 265.838,194.797 265.838,198.001 C265.838,201.206 265.826,201.585 265.769,202.85 C265.62,206.075 264.105,207.621 260.85,207.769 C259.584,207.827 259.206,207.839 256,207.839 C252.796,207.839 252.416,207.827 251.151,207.769 C247.891,207.62 246.38,206.07 246.232,202.849 C246.174,201.584 246.162,201.205 246.162,198 C246.162,194.796 246.175,194.417 246.232,193.151 C246.381,189.924 247.896,188.38 251.151,188.232 C252.417,188.175 252.796,188.163 256,188.163 L256,188.163 Z M256,186 C252.741,186 252.333,186.014 251.053,186.072 C246.695,186.272 244.273,188.69 244.073,193.052 C244.014,194.333 244,194.741 244,198 C244,201.259 244.014,201.668 244.072,202.948 C244.272,207.306 246.69,209.728 251.052,209.928 C252.333,209.986 252.741,210 256,210 C259.259,210 259.668,209.986 260.948,209.928 C265.302,209.728 267.73,207.31 267.927,202.948 C267.986,201.668 268,201.259 268,198 C268,194.741 267.986,194.333 267.928,193.053 C267.732,188.699 265.311,186.273 260.949,186.073 C259.668,186.014 259.259,186 256,186 Z M256,191.838 C252.597,191.838 249.838,194.597 249.838,198 C249.838,201.403 252.597,204.163 256,204.163 C259.403,204.163 262.162,201.404 262.162,198 C262.162,194.597 259.403,191.838 256,191.838 Z M256,202 C253.791,202 252,200.21 252,198 C252,195.791 253.791,194 256,194 C258.209,194 260,195.791 260,198 C260,200.21 258.209,202 256,202 Z M262.406,190.155 C261.61,190.155 260.965,190.8 260.965,191.595 C260.965,192.39 261.61,193.035 262.406,193.035 C263.201,193.035 263.845,192.39 263.845,191.595 C263.845,190.8 263.201,190.155 262.406,190.155 Z" id="Shape"></path>
            </g>
        </g>
    </g>
</svg>