<?xml version="1.0" encoding="UTF-8"?>
<svg width="122px" height="54px" viewBox="0 0 122 54" version="1.1" xmlns="http://www.w3.org/2000/svg" xmlns:xlink="http://www.w3.org/1999/xlink">
    <!-- Generator: Sketch 61 (89581) - https://sketch.com -->
    <title>izza</title>
    <desc>Created with Sketch.</desc>
    <g id="desktop" stroke="none" stroke-width="1" fill="none" fill-rule="evenodd">
        <g id="style-guide-copy" transform="translate(-155.000000, -23.000000)" fill="#FFFFFF" fill-rule="nonzero">
            <path d="M162.424,36.448 C164.6,36.448 166.36,35.8506667 167.704,34.656 C169.048,33.4613333 169.72,31.968 169.72,30.176 C169.72,28.2986667 169.058667,26.752 167.736,25.536 C166.413333,24.32 164.642667,23.712 162.424,23.712 C160.205333,23.712 158.413333,24.32 157.048,25.536 C155.682667,26.752 155,28.2986667 155,30.176 C155,31.968 155.682667,33.4613333 157.048,34.656 C158.413333,35.8506667 160.205333,36.448 162.424,36.448 Z M168.632,76 L168.632,40.096 L156.024,40.096 L156.024,76 L168.632,76 Z M203.064,76 L203.064,65.568 L187.32,65.568 L202.424,49.952 L202.424,40.096 L173.752,40.096 L173.752,50.528 L188.088,50.528 L173.496,66.08 L173.496,76 L203.064,76 Z M235.32,76 L235.32,65.568 L219.576,65.568 L234.68,49.952 L234.68,40.096 L206.008,40.096 L206.008,50.528 L220.344,50.528 L205.752,66.08 L205.752,76 L235.32,76 Z M253.432,76.448 C255.949333,76.448 258.136,75.904 259.992,74.816 C261.848,73.728 263.224,72.224 264.12,70.304 L264.12,70.304 L264.12,76 L276.664,76 L276.664,40.096 L264.12,40.096 L264.12,45.792 C263.224,43.872 261.848,42.368 259.992,41.28 C258.136,40.192 255.949333,39.648 253.432,39.648 C250.573333,39.648 247.992,40.384 245.688,41.856 C243.384,43.328 241.570667,45.4506667 240.248,48.224 C238.925333,50.9973333 238.264,54.2613333 238.264,58.016 C238.264,61.7706667 238.925333,65.0453333 240.248,67.84 C241.570667,70.6346667 243.384,72.768 245.688,74.24 C247.992,75.712 250.573333,76.448 253.432,76.448 Z M257.592,65.44 C255.629333,65.44 254.04,64.7893333 252.824,63.488 C251.608,62.1866667 251,60.3626667 251,58.016 C251,55.712 251.608,53.9093333 252.824,52.608 C254.04,51.3066667 255.629333,50.656 257.592,50.656 C259.469333,50.656 261.026667,51.3173333 262.264,52.64 C263.501333,53.9626667 264.12,55.7546667 264.12,58.016 C264.12,60.32 263.501333,62.1333333 262.264,63.456 C261.026667,64.7786667 259.469333,65.44 257.592,65.44 Z" id="izza"></path>
        </g>
    </g>
</svg>