<?xml version="1.0" encoding="UTF-8"?>
<svg width="24px" height="20px" viewBox="0 0 24 20" version="1.1" xmlns="http://www.w3.org/2000/svg" xmlns:xlink="http://www.w3.org/1999/xlink">
    <!-- Generator: Sketch 61 (89581) - https://sketch.com -->
    <title>Path</title>
    <desc>Created with Sketch.</desc>
    <g id="desktop" stroke="none" stroke-width="1" fill="none" fill-rule="evenodd">
        <g id="style-guide-copy" transform="translate(-277.000000, -355.000000)" fill="#FFFFFF" fill-rule="nonzero">
            <g id="icons" transform="translate(155.000000, 167.000000)">
                <path d="M146,190.309 C145.117,190.701 144.168,190.965 143.172,191.084 C144.189,190.475 144.97,189.51 145.337,188.36 C144.386,188.924 143.332,189.334 142.21,189.555 C141.313,188.598 140.032,188 138.616,188 C135.437,188 133.101,190.966 133.819,194.045 C129.728,193.84 126.1,191.88 123.671,188.901 C122.381,191.114 123.002,194.009 125.194,195.475 C124.388,195.449 123.628,195.228 122.965,194.859 C122.911,197.14 124.546,199.274 126.914,199.749 C126.221,199.937 125.462,199.981 124.69,199.833 C125.316,201.789 127.134,203.212 129.29,203.252 C127.22,204.875 124.612,205.6 122,205.292 C124.179,206.689 126.768,207.504 129.548,207.504 C138.69,207.504 143.855,199.783 143.543,192.858 C144.505,192.163 145.34,191.296 146,190.309 Z" id="Path"></path>
            </g>
        </g>
    </g>
</svg>