<?xml version="1.0" encoding="utf-8"?>
<!-- Generator: Adobe Illustrator 22.1.0, SVG Export Plug-In . SVG Version: 6.00 Build 0)  -->
<svg version="1.1" id="Layer_1" xmlns="http://www.w3.org/2000/svg" xmlns:xlink="http://www.w3.org/1999/xlink" x="0px" y="0px"
	 viewBox="0 0 96 96" style="enable-background:new 0 0 96 96;" xml:space="preserve">
<style type="text/css">
	.st0{fill:#FFFFFF;}
</style>
<g>
	<path class="st0" d="M38.1,51.5c0,4.8-1.6,7-6.7,7c-5.7,0-6.6-3.5-6.6-7v-20h-7.1v20c0,8.7,5,12.9,13.7,12.9
		c8.6,0,13.7-4.2,13.7-12.9v-20H38L38.1,51.5L38.1,51.5z"/>
	<path class="st0" d="M60.8,39.8c-2.9,0-5.6,1.4-7.1,3.9h-0.1v-3.2h-6.1v23.3h6.4V51.5c0-4.7,1.5-6.7,5-6.7c3,0,4.1,1.9,4.1,5.7
		v13.1h6.4V49.4C69.3,43.6,67.6,39.8,60.8,39.8z"/>
	<path class="st0" d="M74.8,57.2c-1.9,0-3.4,1.5-3.4,3.4s1.5,3.4,3.4,3.4s3.4-1.5,3.4-3.4C78.2,58.8,76.7,57.2,74.8,57.2z"/>
</g>
</svg>
