<?xml version="1.0" encoding="UTF-8"?>
<svg width="1340px" height="1376px" viewBox="0 0 1340 1376" version="1.1" xmlns="http://www.w3.org/2000/svg" xmlns:xlink="http://www.w3.org/1999/xlink">
    <!-- Generator: Sketch 61 (89581) - https://sketch.com -->
    <title>Group 11 Copy</title>
    <desc>Created with Sketch.</desc>
    <g id="desktop" stroke="none" stroke-width="1" fill="none" fill-rule="evenodd" opacity="0.5">
        <g id="style-guide-copy" transform="translate(-398.000000, -718.000000)" stroke="#FFFFFF" stroke-width="2">
            <g id="bg" transform="translate(0.000000, 671.000000)">
                <g id="Group-11-Copy" transform="translate(399.000000, 48.000000)">
                    <path d="M1212.06383,919.803569 C1221.2395,818.576086 1161.82357,718.925546 1083.94949,654.530198 C1074.98921,647.116813 1065.79779,640.144972 1056.42425,633.723309 C936.8762,551.778337 947.993814,406.604953 835.054343,319.387734 C722.065842,232.124958 575.943386,201.195848 484.337335,137.136914 C475.252727,130.78709 466.681185,124.121877 458.750539,117.025633 C398.956377,63.5252093 266.038823,23.1992695 187.800524,158.809369 C151.106622,222.442528 126.430389,324.782632 127,482.688954 C127.179851,529.758954 128.636751,573.378953 131.203835,613.883613 C155.529852,998.834701 280.348657,1100.48095 364.66846,1169.96106 C506.612836,1286.91067 660.23167,1263.3564 781.199847,1216.72444 C845.711422,1191.85079 900.954525,1160.43107 940.161228,1140.23393 C968.311606,1125.74183 998.579041,1116.99154 1028.37368,1108.77217 C1115.68433,1084.69225 1198.87469,1065.27307 1212.06383,919.803569" id="Stroke-1"></path>
                    <path d="M1117.88477,966.392674 C1132.77774,883.968282 1103.73732,831.238172 1086.62877,675.024542 C1085.89375,668.287302 1085.01872,661.639355 1084.07894,655.031677 C1062.92252,505.838924 991.611242,389.204829 900.265329,305.582862 C821.28881,233.264331 671.037768,157.566674 484.777578,137.927479 C446.087344,133.848017 405.871061,132.12869 364.384238,133.424313 C290.381378,135.738926 233.198304,145.354551 188.372375,159.618661 C158.910185,168.997922 134.790916,180.380146 114.733526,193.021226 C103.809678,226.521838 94.1756208,260.31484 83.3550257,290.665687 C53.2225647,375.252369 26.5954655,407.541398 12,472.166729 C23.506617,505.129832 43.7495126,537.10371 75.6460298,564.660213 C96.3124389,582.529307 114.919032,599.078266 131.759819,614.489178 C316.726718,783.823618 285.965987,815.186452 383.937612,928.663778 C395.307725,941.835363 408.419143,956.118733 423.803883,971.848298 C439.176374,987.570859 456.813436,1004.73787 477.271589,1023.71349 C483.547289,1029.52979 490.095998,1035.51592 496.921215,1041.68413 C507.020787,1050.82353 517.710128,1060.3341 529.101241,1070.28589 C609.911819,1140.93237 665.920605,1216.51447 781.417288,1217 C813.432809,1217.13076 850.022976,1211.4948 892.971096,1198.3775 C936.939498,1184.95904 986.763587,1150.50772 1028.49017,1109.07054 C1074.07212,1063.79202 1109.97277,1010.15497 1117.88477,966.392674" id="Stroke-3"></path>
                    <path d="M1312.58111,811.151973 C1276.98999,725.905981 1193.4862,665.218978 1135.60886,587.697933 C1077.73327,510.171632 1087.72768,457.575762 986.600684,318.411075 C917.484868,223.279814 798.694412,169.471501 657.040323,122.044285 C505.748758,71.3722055 430.07498,-0.510626829 302.567403,0 C188.991121,0.465285072 146.507842,95.1848063 114.832604,192.423827 C71.722924,219.610946 47.4000221,252.61499 29.285138,283.938783 C2.2641629,330.637131 -11.6006436,403.236567 12.2165884,471.522367 C6.38476099,497.397173 2.47237996,528.451145 1.04810529,570.150792 C-3.92810744,715.961141 113.525561,907.406321 167.485274,1015.74481 C213.681465,1108.5125 201.709859,1193.15753 355.122088,1310.28623 C505.120607,1424.80958 678.071995,1370.85935 840.48655,1259.62992 C870.569541,1239.02189 901.61138,1218.94999 932.565732,1201.18209 C1037.72585,1140.85251 1115.63752,1139.66635 1177.57072,1128.75085 C1376.65947,1093.6811 1348.16698,896.399717 1312.58111,811.151973" id="Stroke-5"></path>
                    <path d="M581.84013,959.594224 C515.171195,884.325551 440.824031,803.866659 326.627461,714.220627 C173.813921,594.276127 209.650903,502.858552 233.751715,394.270501 C246.540008,336.66469 252.576153,285.293448 270.789623,258.340061 C317.723798,188.888917 409.591185,157.980661 597.060037,320.200379 C625.976811,345.226271 661.857558,353.255163 701.533654,363.441098 C767.899732,380.476647 829.311549,398.328754 868.642773,487.902944 C908.465921,578.586319 1032.9474,709.591134 1058.10908,829.775695 C1087.13265,968.346803 1031.03572,1035.9055 972.150046,1089.74393 C868.198115,1184.80973 769.855176,1203.15773 695.040597,1140.05155 C620.226018,1076.93485 652.60202,1039.49765 581.84013,959.594224" id="Stroke-7"></path>
                    <path d="M987.466209,756.010582 C971.202174,708.799714 892.983658,580.342521 818.232424,509.000953 C771.859718,464.743828 714.285699,446.310509 655.415384,395.613629 C560.910092,314.22198 499.293242,294.591056 454.022649,302.674892 L454.033146,302.65038 C454.033146,302.65038 452.140311,302.934023 448.861963,303.734178 C440.13253,305.744194 431.812454,308.622649 424.185134,312.451835 C409.000469,319.714507 389.708248,331.443687 373.377736,351.937798 C330.299123,405.989374 311.512474,543.428608 325.633512,605.866925 L325.862682,605.320649 C334.09179,647.755102 360.045671,691.62353 420.490432,739.119793 C485.18445,789.967249 575.106353,870.973703 636.495782,942.026374 C691.779857,1006.02473 817.863304,1182.94117 911.203506,1109.43201 C1009.68515,1031.88355 1026.6332,869.678048 987.466209,756.010582" id="Stroke-9"></path>
                </g>
            </g>
        </g>
    </g>
</svg>